<?xml version="1.0" encoding="UTF-8"?>
<!DOCTYPE svg PUBLIC "-//W3C//DTD SVG 1.1//EN" "http://www.w3.org/Graphics/SVG/1.1/DTD/svg11.dtd">
<svg version="1.1" xmlns="http://www.w3.org/2000/svg" xmlns:xlink="http://www.w3.org/1999/xlink" x="0" y="0" width="288.089" height="296.48" viewBox="0, 0, 847.319, 872">
  <g id="Layer_1">
    <path d="M533.37,149.503 L533.37,723.503" fill-opacity="0" stroke="#000000" stroke-width="3"/>
    <path d="M247.319,77.924 L824.319,77.924" fill-opacity="0" stroke="#000000" stroke-width="3"/>
    <path d="M244.87,795.503 L821.87,795.503" fill-opacity="0" stroke="#000000" stroke-width="3"/>
    <path d="M245.898,798.424 L245.898,79.424" fill-opacity="0" stroke="#000000" stroke-width="3"/>
    <g>
      <path d="M461.898,222.449 L604.843,222.449 L604.843,364.503 L461.898,364.503 L461.898,222.449 z" fill="#DBDBDB" fill-opacity="0.968"/>
      <path d="M461.898,222.449 L604.843,222.449 L604.843,364.503 L461.898,364.503 L461.898,222.449 z" fill-opacity="0" stroke="#474545" stroke-width="2"/>
    </g>
    <text transform="matrix(1, 0, 0, 1, 532.87, 298.834)">
      <tspan x="-64.596" y="-1.831" font-family="ArialMT" font-size="31" fill="#656565">Oscillator</tspan>
    </text>
    <g>
      <path d="M461.898,509.449 L604.843,509.449 L604.843,651.503 L461.898,651.503 L461.898,509.449 z" fill="#DBDBDB" fill-opacity="0.968"/>
      <path d="M461.898,509.449 L604.843,509.449 L604.843,651.503 L461.898,651.503 L461.898,509.449 z" fill-opacity="0" stroke="#474545" stroke-width="2"/>
    </g>
    <text transform="matrix(1, 0, 0, 1, 532.87, 579.503)">
      <tspan x="-66.614" y="-7.5" font-family="ArialMT" font-size="31" fill="#656565">90</tspan>
      <tspan x="-32.132" y="-7.5" font-family="Cambria" font-size="31" fill="#656565">°</tspan>
      <tspan x="-20.492" y="-7.5" font-family="Cambria" font-size="12" fill="#656565"> </tspan>
      <tspan x="-17.849" y="-7.5" font-family="ArialMT" font-size="31" fill="#656565">phase </tspan>
      <tspan x="-28.427" y="28.5" font-family="ArialMT" font-size="31" fill="#656565">shift</tspan>
    </text>
    <g>
      <path d="M171.477,366.003 L314.421,366.003 L314.421,508.056 L171.477,508.056 L171.477,366.003 z" fill="#DBDBDB" fill-opacity="0.968"/>
      <path d="M171.477,366.003 L314.421,366.003 L314.421,508.056 L171.477,508.056 L171.477,366.003 z" fill-opacity="0" stroke="#474545" stroke-width="2"/>
    </g>
    <text transform="matrix(1, 0, 0, 1, 242.449, 436.001)">
      <tspan x="-48.241" y="10" font-family="ArialMT" font-size="31" fill="#656565">Splitter</tspan>
    </text>
    <g>
      <g>
        <path d="M533.37,149.5 C493.606,149.5 461.37,117.265 461.37,77.5 C461.37,37.735 493.606,5.5 533.37,5.5 C573.135,5.5 605.37,37.735 605.37,77.5 C605.37,117.265 573.135,149.5 533.37,149.5 z" fill="#DCDCDC"/>
        <path d="M533.37,149.5 C493.606,149.5 461.37,117.265 461.37,77.5 C461.37,37.735 493.606,5.5 533.37,5.5 C573.135,5.5 605.37,37.735 605.37,77.5 C605.37,117.265 573.135,149.5 533.37,149.5 z" fill-opacity="0" stroke="#000000" stroke-width="3"/>
      </g>
      <path d="M483.842,26.5 L586.842,129.5" fill-opacity="0" stroke="#000000" stroke-width="3"/>
      <path d="M582.842,26 L479.842,129" fill-opacity="0" stroke="#000000" stroke-width="3"/>
    </g>
    <g>
      <g>
        <path d="M533.37,867.5 C493.606,867.5 461.37,835.265 461.37,795.5 C461.37,755.735 493.606,723.5 533.37,723.5 C573.135,723.5 605.37,755.735 605.37,795.5 C605.37,835.265 573.135,867.5 533.37,867.5 z" fill="#DCDCDC"/>
        <path d="M533.37,867.5 C493.606,867.5 461.37,835.265 461.37,795.5 C461.37,755.735 493.606,723.5 533.37,723.5 C573.135,723.5 605.37,755.735 605.37,795.5 C605.37,835.265 573.135,867.5 533.37,867.5 z" fill-opacity="0" stroke="#000000" stroke-width="3"/>
      </g>
      <path d="M483.842,744.5 L586.842,847.5" fill-opacity="0" stroke="#000000" stroke-width="3"/>
      <path d="M582.842,744 L479.842,847" fill-opacity="0" stroke="#000000" stroke-width="3"/>
    </g>
    <path d="M24,436.501 L171.477,436.501" fill-opacity="0" stroke="#000000" stroke-width="3"/>
    <text transform="matrix(1, 0, 0, 1, 755.004, 103.424)">
      <tspan x="-56.001" y="6.5" font-family="Avenir-Medium" font-size="31" fill="#656565">I output</tspan>
    </text>
    <text transform="matrix(1, 0, 0, 1, 755.004, 790.753)">
      <tspan x="-64.589" y="-12" font-family="Avenir-Medium" font-size="31" fill="#656565">Q output</tspan>
    </text>
    <text transform="matrix(1, 0, 0, 1, 420.71, 100.924)">
      <tspan x="-40.16" y="9" font-family="Avenir-Medium" font-size="31" fill="#656565">Mixer</tspan>
    </text>
    <text transform="matrix(1, -0.003, 0.003, 1, 83.541, 394.529)">
      <tspan x="-42.191" y="-12" font-family="Avenir-Medium" font-size="31" fill="#656565">Signal </tspan>
      <tspan x="-36.75" y="30" font-family="Avenir-Medium" font-size="31" fill="#656565">Input</tspan>
    </text>
    <text transform="matrix(1, 0, 0, 1, 420.71, 769.753)">
      <tspan x="-40.16" y="9" font-family="Avenir-Medium" font-size="31" fill="#656565">Mixer</tspan>
    </text>
    <g>
      <path d="M14.75,448.174 C9.641,448.174 5.5,444.033 5.5,438.924 C5.5,433.816 9.641,429.674 14.75,429.674 C19.859,429.674 24,433.816 24,438.924 C24,444.033 19.859,448.174 14.75,448.174 z" fill="#FFFFFF"/>
      <path d="M14.75,448.174 C9.641,448.174 5.5,444.033 5.5,438.924 C5.5,433.816 9.641,429.674 14.75,429.674 C19.859,429.674 24,433.816 24,438.924 C24,444.033 19.859,448.174 14.75,448.174 z" fill-opacity="0" stroke="#000000" stroke-width="3"/>
    </g>
    <g>
      <path d="M833.569,804.751 C828.46,804.751 824.319,800.609 824.319,795.501 C824.319,790.392 828.46,786.251 833.569,786.251 C838.678,786.251 842.819,790.392 842.819,795.501 C842.819,800.609 838.678,804.751 833.569,804.751 z" fill="#FFFFFF"/>
      <path d="M833.569,804.751 C828.46,804.751 824.319,800.609 824.319,795.501 C824.319,790.392 828.46,786.251 833.569,786.251 C838.678,786.251 842.819,790.392 842.819,795.501 C842.819,800.609 838.678,804.751 833.569,804.751 z" fill-opacity="0" stroke="#000000" stroke-width="3"/>
    </g>
    <g>
      <path d="M833.569,87.174 C828.46,87.174 824.319,83.033 824.319,77.924 C824.319,72.816 828.46,68.674 833.569,68.674 C838.678,68.674 842.819,72.816 842.819,77.924 C842.819,83.033 838.678,87.174 833.569,87.174 z" fill="#FFFFFF"/>
      <path d="M833.569,87.174 C828.46,87.174 824.319,83.033 824.319,77.924 C824.319,72.816 828.46,68.674 833.569,68.674 C838.678,68.674 842.819,72.816 842.819,77.924 C842.819,83.033 838.678,87.174 833.569,87.174 z" fill-opacity="0" stroke="#000000" stroke-width="3"/>
    </g>
  </g>
</svg>
