<?xml version="1.0" encoding="UTF-8"?>
<!DOCTYPE svg PUBLIC "-//W3C//DTD SVG 1.1//EN" "http://www.w3.org/Graphics/SVG/1.1/DTD/svg11.dtd">
<svg version="1.1" xmlns="http://www.w3.org/2000/svg" xmlns:xlink="http://www.w3.org/1999/xlink" x="0" y="0" width="286.433" height="296.48" viewBox="0, 0, 842.449, 872">
  <g id="Layer_1">
    <path d="M312.5,149.502 L312.5,723.502" fill-opacity="0" stroke="#000000" stroke-width="3"/>
    <path d="M26.449,77.924 L603.449,77.924" fill-opacity="0" stroke="#000000" stroke-width="3"/>
    <path d="M24,795.502 L601,795.502" fill-opacity="0" stroke="#000000" stroke-width="3"/>
    <path d="M603.449,796.924 L603.449,77.924" fill-opacity="0" stroke="#000000" stroke-width="3"/>
    <g>
      <path d="M241.028,222.448 L383.972,222.448 L383.972,364.502 L241.028,364.502 L241.028,222.448 z" fill="#DBDBDB" fill-opacity="0.968"/>
      <path d="M241.028,222.448 L383.972,222.448 L383.972,364.502 L241.028,364.502 L241.028,222.448 z" fill-opacity="0" stroke="#474545" stroke-width="2"/>
    </g>
    <text transform="matrix(1, 0, 0, 1, 312, 298.833)">
      <tspan x="-64.596" y="-1.831" font-family="ArialMT" font-size="31" fill="#656565">Oscillator</tspan>
    </text>
    <g>
      <path d="M241.028,509.448 L383.972,509.448 L383.972,651.502 L241.028,651.502 L241.028,509.448 z" fill="#DBDBDB" fill-opacity="0.968"/>
      <path d="M241.028,509.448 L383.972,509.448 L383.972,651.502 L241.028,651.502 L241.028,509.448 z" fill-opacity="0" stroke="#474545" stroke-width="2"/>
    </g>
    <text transform="matrix(1, 0, 0, 1, 312, 579.502)">
      <tspan x="-66.614" y="-7.5" font-family="ArialMT" font-size="31" fill="#656565">90</tspan>
      <tspan x="-32.132" y="-7.5" font-family="Cambria" font-size="31" fill="#656565">°</tspan>
      <tspan x="-20.492" y="-7.5" font-family="Cambria" font-size="12" fill="#656565"> </tspan>
      <tspan x="-17.849" y="-7.5" font-family="ArialMT" font-size="31" fill="#656565">phase </tspan>
      <tspan x="-28.427" y="28.5" font-family="ArialMT" font-size="31" fill="#656565">shift</tspan>
    </text>
    <g>
      <path d="M529.028,364.502 L671.972,364.502 L671.972,506.555 L529.028,506.555 L529.028,364.502 z" fill="#DBDBDB" fill-opacity="0.968"/>
      <path d="M529.028,364.502 L671.972,364.502 L671.972,506.555 L529.028,506.555 L529.028,364.502 z" fill-opacity="0" stroke="#474545" stroke-width="2"/>
    </g>
    <text transform="matrix(1, 0, 0, 1, 600, 435.029)">
      <tspan x="-26.279" y="30" font-family="ArialMT" font-size="90" fill="#656565">+</tspan>
    </text>
    <g>
      <g>
        <path d="M312.5,149.5 C272.735,149.5 240.5,117.265 240.5,77.5 C240.5,37.735 272.735,5.5 312.5,5.5 C352.264,5.5 384.5,37.735 384.5,77.5 C384.5,117.265 352.264,149.5 312.5,149.5 z" fill="#DCDCDC"/>
        <path d="M312.5,149.5 C272.735,149.5 240.5,117.265 240.5,77.5 C240.5,37.735 272.735,5.5 312.5,5.5 C352.264,5.5 384.5,37.735 384.5,77.5 C384.5,117.265 352.264,149.5 312.5,149.5 z" fill-opacity="0" stroke="#000000" stroke-width="3"/>
      </g>
      <path d="M262.972,26.5 L365.972,129.5" fill-opacity="0" stroke="#000000" stroke-width="3"/>
      <path d="M361.972,26 L258.972,129" fill-opacity="0" stroke="#000000" stroke-width="3"/>
    </g>
    <g>
      <g>
        <path d="M312.5,867.5 C272.735,867.5 240.5,835.265 240.5,795.5 C240.5,755.735 272.735,723.5 312.5,723.5 C352.264,723.5 384.5,755.735 384.5,795.5 C384.5,835.265 352.264,867.5 312.5,867.5 z" fill="#DCDCDC"/>
        <path d="M312.5,867.5 C272.735,867.5 240.5,835.265 240.5,795.5 C240.5,755.735 272.735,723.5 312.5,723.5 C352.264,723.5 384.5,755.735 384.5,795.5 C384.5,835.265 352.264,867.5 312.5,867.5 z" fill-opacity="0" stroke="#000000" stroke-width="3"/>
      </g>
      <path d="M262.972,744.5 L365.972,847.5" fill-opacity="0" stroke="#000000" stroke-width="3"/>
      <path d="M361.972,744 L258.972,847" fill-opacity="0" stroke="#000000" stroke-width="3"/>
    </g>
    <path d="M671.972,438.924 L819.449,438.924" fill-opacity="0" stroke="#000000" stroke-width="3"/>
    <text transform="matrix(1, 0, 0, 1, 70.728, 111.924)">
      <tspan x="-44.779" y="9" font-family="Avenir-Medium" font-size="31" fill="#656565">I input</tspan>
    </text>
    <text transform="matrix(1, 0, 0, 1, 79.315, 765.924)">
      <tspan x="-53.367" y="9" font-family="Avenir-Medium" font-size="31" fill="#656565">Q input</tspan>
    </text>
    <text transform="matrix(1, 0, 0, 1, 434.109, 106.924)">
      <tspan x="-40.16" y="9" font-family="Avenir-Medium" font-size="31" fill="#656565">Mixer</tspan>
    </text>
    <text transform="matrix(1, 0, 0, 1, 766.949, 411.779)">
      <tspan x="-51.072" y="3.25" font-family="Avenir-Medium" font-size="31" fill="#656565">Output</tspan>
    </text>
    <text transform="matrix(1, 0, 0, 1, 434.109, 760.924)">
      <tspan x="-40.16" y="9" font-family="Avenir-Medium" font-size="31" fill="#656565">Mixer</tspan>
    </text>
    <g>
      <path d="M828.699,448.174 C823.59,448.174 819.449,444.032 819.449,438.924 C819.449,433.815 823.59,429.674 828.699,429.674 C833.807,429.674 837.949,433.815 837.949,438.924 C837.949,444.032 833.807,448.174 828.699,448.174 z" fill="#FFFFFF"/>
      <path d="M828.699,448.174 C823.59,448.174 819.449,444.032 819.449,438.924 C819.449,433.815 823.59,429.674 828.699,429.674 C833.807,429.674 837.949,433.815 837.949,438.924 C837.949,444.032 833.807,448.174 828.699,448.174 z" fill-opacity="0" stroke="#000000" stroke-width="3"/>
    </g>
    <g>
      <path d="M14.75,804.752 C9.641,804.752 5.5,800.61 5.5,795.502 C5.5,790.393 9.641,786.252 14.75,786.252 C19.859,786.252 24,790.393 24,795.502 C24,800.61 19.859,804.752 14.75,804.752 z" fill="#FFFFFF"/>
      <path d="M14.75,804.752 C9.641,804.752 5.5,800.61 5.5,795.502 C5.5,790.393 9.641,786.252 14.75,786.252 C19.859,786.252 24,790.393 24,795.502 C24,800.61 19.859,804.752 14.75,804.752 z" fill-opacity="0" stroke="#000000" stroke-width="3"/>
    </g>
    <g>
      <path d="M14.75,87.174 C9.641,87.174 5.5,83.032 5.5,77.924 C5.5,72.815 9.641,68.674 14.75,68.674 C19.859,68.674 24,72.815 24,77.924 C24,83.032 19.859,87.174 14.75,87.174 z" fill="#FFFFFF"/>
      <path d="M14.75,87.174 C9.641,87.174 5.5,83.032 5.5,77.924 C5.5,72.815 9.641,68.674 14.75,68.674 C19.859,68.674 24,72.815 24,77.924 C24,83.032 19.859,87.174 14.75,87.174 z" fill-opacity="0" stroke="#000000" stroke-width="3"/>
    </g>
  </g>
</svg>
